<svg id="visual" viewBox="0 0 960 540" width="960" height="540" xmlns="http://www.w3.org/2000/svg" xmlns:xlink="http://www.w3.org/1999/xlink" version="1.1"><rect x="0" y="0" width="960" height="540" fill="#222222"></rect><path d="M0 178L12.3 177.3C24.7 176.7 49.3 175.3 74 176.5C98.7 177.7 123.3 181.3 148 183.8C172.7 186.3 197.3 187.7 221.8 183.2C246.3 178.7 270.7 168.3 295.2 166.5C319.7 164.7 344.3 171.3 369 171.8C393.7 172.3 418.3 166.7 443 166.7C467.7 166.7 492.3 172.3 517 171.7C541.7 171 566.3 164 591 164.8C615.7 165.7 640.3 174.3 664.8 177.3C689.3 180.3 713.7 177.7 738.2 174.2C762.7 170.7 787.3 166.3 812 164C836.7 161.7 861.3 161.3 886 163.3C910.7 165.3 935.3 169.7 947.7 171.8L960 174L960 0L947.7 0C935.3 0 910.7 0 886 0C861.3 0 836.7 0 812 0C787.3 0 762.7 0 738.2 0C713.7 0 689.3 0 664.8 0C640.3 0 615.7 0 591 0C566.3 0 541.7 0 517 0C492.3 0 467.7 0 443 0C418.3 0 393.7 0 369 0C344.3 0 319.7 0 295.2 0C270.7 0 246.3 0 221.8 0C197.3 0 172.7 0 148 0C123.3 0 98.7 0 74 0C49.3 0 24.7 0 12.3 0L0 0Z" fill="#222222"></path><path d="M0 156L12.3 157C24.7 158 49.3 160 74 158.8C98.7 157.7 123.3 153.3 148 149C172.7 144.7 197.3 140.3 221.8 141.8C246.3 143.3 270.7 150.7 295.2 151C319.7 151.3 344.3 144.7 369 144.8C393.7 145 418.3 152 443 151.2C467.7 150.3 492.3 141.7 517 137.8C541.7 134 566.3 135 591 136.8C615.7 138.7 640.3 141.3 664.8 140.3C689.3 139.3 713.7 134.7 738.2 134.8C762.7 135 787.3 140 812 140C836.7 140 861.3 135 886 132.8C910.7 130.7 935.3 131.3 947.7 131.7L960 132L960 0L947.7 0C935.3 0 910.7 0 886 0C861.3 0 836.7 0 812 0C787.3 0 762.7 0 738.2 0C713.7 0 689.3 0 664.8 0C640.3 0 615.7 0 591 0C566.3 0 541.7 0 517 0C492.3 0 467.7 0 443 0C418.3 0 393.7 0 369 0C344.3 0 319.7 0 295.2 0C270.7 0 246.3 0 221.8 0C197.3 0 172.7 0 148 0C123.3 0 98.7 0 74 0C49.3 0 24.7 0 12.3 0L0 0Z" fill="#484848"></path><path d="M0 118L12.3 117.5C24.7 117 49.3 116 74 114.3C98.7 112.7 123.3 110.3 148 111C172.7 111.7 197.3 115.3 221.8 117.8C246.3 120.3 270.7 121.7 295.2 119.5C319.7 117.3 344.3 111.7 369 110.5C393.7 109.3 418.3 112.7 443 117.2C467.7 121.7 492.3 127.3 517 128.5C541.7 129.7 566.3 126.3 591 123C615.7 119.7 640.3 116.3 664.8 117.2C689.3 118 713.7 123 738.2 126.2C762.7 129.3 787.3 130.7 812 129.7C836.7 128.7 861.3 125.3 886 124.3C910.7 123.3 935.3 124.7 947.7 125.3L960 126L960 0L947.7 0C935.3 0 910.7 0 886 0C861.3 0 836.7 0 812 0C787.3 0 762.7 0 738.2 0C713.7 0 689.3 0 664.8 0C640.3 0 615.7 0 591 0C566.3 0 541.7 0 517 0C492.3 0 467.7 0 443 0C418.3 0 393.7 0 369 0C344.3 0 319.7 0 295.2 0C270.7 0 246.3 0 221.8 0C197.3 0 172.7 0 148 0C123.3 0 98.7 0 74 0C49.3 0 24.7 0 12.3 0L0 0Z" fill="#727272"></path><path d="M0 80L12.3 83.3C24.7 86.7 49.3 93.3 74 95.8C98.7 98.3 123.3 96.7 148 93.7C172.7 90.7 197.3 86.3 221.8 87.7C246.3 89 270.7 96 295.2 98.2C319.7 100.3 344.3 97.7 369 96.3C393.7 95 418.3 95 443 92.5C467.7 90 492.3 85 517 82.5C541.7 80 566.3 80 591 80.3C615.7 80.7 640.3 81.3 664.8 82.2C689.3 83 713.7 84 738.2 83.8C762.7 83.7 787.3 82.3 812 83.2C836.7 84 861.3 87 886 87.2C910.7 87.3 935.3 84.7 947.7 83.3L960 82L960 0L947.7 0C935.3 0 910.7 0 886 0C861.3 0 836.7 0 812 0C787.3 0 762.7 0 738.2 0C713.7 0 689.3 0 664.8 0C640.3 0 615.7 0 591 0C566.3 0 541.7 0 517 0C492.3 0 467.7 0 443 0C418.3 0 393.7 0 369 0C344.3 0 319.7 0 295.2 0C270.7 0 246.3 0 221.8 0C197.3 0 172.7 0 148 0C123.3 0 98.7 0 74 0C49.3 0 24.7 0 12.3 0L0 0Z" fill="#9f9f9f"></path><path d="M0 72L12.3 69.3C24.7 66.7 49.3 61.3 74 60.2C98.7 59 123.3 62 148 63C172.7 64 197.3 63 221.8 64C246.3 65 270.7 68 295.2 68.5C319.7 69 344.3 67 369 65.8C393.7 64.7 418.3 64.3 443 63.8C467.7 63.3 492.3 62.7 517 63.7C541.7 64.7 566.3 67.3 591 67.7C615.7 68 640.3 66 664.8 63.7C689.3 61.3 713.7 58.7 738.2 60C762.7 61.3 787.3 66.7 812 67.5C836.7 68.3 861.3 64.7 886 61.8C910.7 59 935.3 57 947.7 56L960 55L960 0L947.7 0C935.3 0 910.7 0 886 0C861.3 0 836.7 0 812 0C787.3 0 762.7 0 738.2 0C713.7 0 689.3 0 664.8 0C640.3 0 615.7 0 591 0C566.3 0 541.7 0 517 0C492.3 0 467.7 0 443 0C418.3 0 393.7 0 369 0C344.3 0 319.7 0 295.2 0C270.7 0 246.3 0 221.8 0C197.3 0 172.7 0 148 0C123.3 0 98.7 0 74 0C49.3 0 24.7 0 12.3 0L0 0Z" fill="#cecece"></path><path d="M0 43L12.3 41.5C24.7 40 49.3 37 74 35.2C98.7 33.3 123.3 32.7 148 32.7C172.7 32.7 197.3 33.3 221.8 33.3C246.3 33.3 270.7 32.7 295.2 33.7C319.7 34.7 344.3 37.3 369 38.3C393.7 39.3 418.3 38.7 443 37.3C467.7 36 492.3 34 517 34.2C541.7 34.3 566.3 36.7 591 36.7C615.7 36.7 640.3 34.3 664.8 34.3C689.3 34.3 713.7 36.7 738.2 36.3C762.7 36 787.3 33 812 33C836.7 33 861.3 36 886 37.5C910.7 39 935.3 39 947.7 39L960 39L960 0L947.7 0C935.3 0 910.7 0 886 0C861.3 0 836.7 0 812 0C787.3 0 762.7 0 738.2 0C713.7 0 689.3 0 664.8 0C640.3 0 615.7 0 591 0C566.3 0 541.7 0 517 0C492.3 0 467.7 0 443 0C418.3 0 393.7 0 369 0C344.3 0 319.7 0 295.2 0C270.7 0 246.3 0 221.8 0C197.3 0 172.7 0 148 0C123.3 0 98.7 0 74 0C49.3 0 24.7 0 12.3 0L0 0Z" fill="#ffffff"></path></svg>