<svg id="visual" viewBox="0 0 960 540" width="960" height="540" xmlns="http://www.w3.org/2000/svg" xmlns:xlink="http://www.w3.org/1999/xlink" version="1.1"><rect x="0" y="0" width="960" height="540" fill="#141414"></rect><path d="M0 21L26.7 20.2C53.3 19.3 106.7 17.7 160 20.2C213.3 22.7 266.7 29.3 320 39C373.3 48.7 426.7 61.3 480 63.2C533.3 65 586.7 56 640 44.3C693.3 32.7 746.7 18.3 800 16C853.3 13.7 906.7 23.3 933.3 28.2L960 33L960 0L933.3 0C906.7 0 853.3 0 800 0C746.7 0 693.3 0 640 0C586.7 0 533.3 0 480 0C426.7 0 373.3 0 320 0C266.7 0 213.3 0 160 0C106.7 0 53.3 0 26.7 0L0 0Z" fill="#222" stroke-linecap="round" stroke-linejoin="miter"></path></svg>