<svg id="visual" viewBox="0 0 960 540" width="960" height="540" xmlns="http://www.w3.org/2000/svg" xmlns:xlink="http://www.w3.org/1999/xlink" version="1.1"><rect x="0" y="0" width="960" height="540" fill="#141414"></rect><path d="M0 83L40 73.2C80 63.3 160 43.7 240 30.3C320 17 400 10 480 18.8C560 27.7 640 52.3 720 65.8C800 79.3 880 81.7 920 82.8L960 84L960 0L920 0C880 0 800 0 720 0C640 0 560 0 480 0C400 0 320 0 240 0C160 0 80 0 40 0L0 0Z" fill="#222" stroke-linecap="round" stroke-linejoin="miter"></path></svg>