<svg id="visual" viewBox="0 0 960 540" width="960" height="540" xmlns="http://www.w3.org/2000/svg" xmlns:xlink="http://www.w3.org/1999/xlink" version="1.1"><rect x="0" y="0" width="960" height="540" fill="#141414"></rect><path d="M0 1L17.8 11.2C35.7 21.3 71.3 41.7 106.8 56.8C142.3 72 177.7 82 213.2 73C248.7 64 284.3 36 320 31.5C355.7 27 391.3 46 426.8 44.8C462.3 43.7 497.7 22.3 533.2 24.8C568.7 27.3 604.3 53.7 640 56.2C675.7 58.7 711.3 37.3 746.8 24C782.3 10.7 817.7 5.3 853.2 14C888.7 22.7 924.3 45.3 942.2 56.7L960 68L960 0L942.2 0C924.3 0 888.7 0 853.2 0C817.7 0 782.3 0 746.8 0C711.3 0 675.7 0 640 0C604.3 0 568.7 0 533.2 0C497.7 0 462.3 0 426.8 0C391.3 0 355.7 0 320 0C284.3 0 248.7 0 213.2 0C177.7 0 142.3 0 106.8 0C71.3 0 35.7 0 17.8 0L0 0Z" fill="#222" stroke-linecap="round" stroke-linejoin="miter"></path></svg>