<svg id="visual" viewBox="0 0 900 600" width="900" height="600" xmlns="http://www.w3.org/2000/svg" xmlns:xlink="http://www.w3.org/1999/xlink" version="1.1"><rect x="0" y="0" width="900" height="600" fill="#141414"></rect><path d="M0 144L25 147.8C50 151.7 100 159.3 150 140.8C200 122.3 250 77.7 300 85C350 92.3 400 151.7 450 182.5C500 213.3 550 215.7 600 211.8C650 208 700 198 750 177.2C800 156.3 850 124.7 875 108.8L900 93L900 0L875 0C850 0 800 0 750 0C700 0 650 0 600 0C550 0 500 0 450 0C400 0 350 0 300 0C250 0 200 0 150 0C100 0 50 0 25 0L0 0Z" fill="#222" stroke-linecap="round" stroke-linejoin="miter"></path></svg>